<svg xmlns="http://www.w3.org/2000/svg" width="512" height="512" viewBox="0 0 512 512" version="1.1">
	<path d="M 241 12.707 C 128.953 19.565, 34.875 101.921, 13.598 211.775 C 6.940 246.146, 7.663 282.393, 15.685 316.500 C 29.763 376.355, 67.748 430.706, 119.220 464.645 C 218.616 530.184, 348.834 516.511, 431.592 431.847 C 451.349 411.635, 464.338 393.330, 476.921 367.965 C 494.002 333.536, 502.059 298.994, 502.105 260 C 502.155 218.541, 494.722 186.452, 476.509 149.500 C 445.827 87.251, 389.940 40.800, 322.500 21.496 C 298.124 14.518, 266.724 11.132, 241 12.707 M 124.880 131.794 C 120.988 133.827, 118.709 135.916, 116.515 139.462 L 113.500 144.336 113.181 166.668 L 112.863 189 108.681 189.007 C 104.149 189.014, 99.917 191.261, 97.195 195.106 C 95.711 197.201, 95.462 201.209, 95.195 227.234 C 94.924 253.715, 95.079 257.365, 96.615 260.602 C 98.819 265.246, 103.324 267.991, 108.750 267.996 L 113 268 113 288.257 C 113 299.398, 113.440 310.046, 113.977 311.920 C 115.629 317.679, 119.880 322.761, 125.309 325.467 C 129.850 327.730, 131.602 328, 141.728 328 C 154.170 328, 158.436 326.854, 163.339 322.197 C 169.441 316.401, 169.455 316.316, 170 282 L 170.500 250.500 188.750 250.227 C 198.787 250.078, 207 250.250, 207 250.611 C 207 250.972, 203.831 254.604, 199.957 258.682 C 192.420 266.616, 191 269.141, 191 274.605 C 191 278.381, 194.135 285.407, 196.395 286.696 C 197.169 287.138, 203.452 293.003, 210.356 299.728 L 222.908 311.957 221.396 336.728 C 219.090 374.507, 219.104 378.290, 221.562 381.600 C 222.696 383.127, 224.866 385.304, 226.385 386.438 C 229.063 388.438, 230.319 388.500, 267.901 388.500 L 306.656 388.500 310.187 385.806 C 312.129 384.325, 314.497 381.473, 315.448 379.469 C 317.107 375.973, 317.064 374.523, 314.395 343.617 L 311.614 311.409 315.350 284.955 C 317.404 270.405, 319.319 256.587, 319.604 254.250 L 320.123 250 330.561 250 L 341 250 341.010 280.250 C 341.019 309.947, 341.063 310.593, 343.384 315.579 C 348.005 325.501, 354.636 328.372, 371.749 327.858 C 382.757 327.527, 383.959 327.294, 387.815 324.741 C 390.107 323.224, 393.224 320.109, 394.741 317.818 L 397.500 313.654 398 291.077 L 398.500 268.500 403.667 267.980 C 409.170 267.426, 412.208 265.432, 414.602 260.802 C 416.762 256.626, 416.630 200.119, 414.451 195.906 C 412.327 191.799, 407.395 189.008, 402.250 189.004 L 398 189 397.978 167.250 C 397.953 142.524, 397.353 139.911, 390.379 134.159 C 385.276 129.949, 381.501 129.012, 369.616 129.006 C 357.256 128.999, 352.599 130.361, 347.480 135.480 C 341.343 141.616, 341 143.835, 341 177.366 L 341 207 330.039 207 L 319.077 207 318.035 203.131 C 316.005 195.592, 310.377 191, 303.167 191 C 299.913 191, 298.546 190.310, 295.235 187 L 291.235 183 281.525 183 C 273.330 183, 271.419 182.688, 269.273 181 C 267.148 179.328, 265.216 179, 257.505 179 C 249.356 179, 247.856 179.287, 244.659 181.457 C 241.167 183.826, 240.904 183.858, 237.274 182.341 C 234.576 181.214, 231.473 180.899, 226.315 181.230 C 214.433 181.993, 210.697 185.972, 209.553 199.082 L 208.859 207.043 189.679 206.771 L 170.500 206.500 170 175 C 169.455 140.684, 169.441 140.599, 163.339 134.803 C 158.427 130.137, 154.175 129, 141.646 129 C 131.089 129, 129.825 129.211, 124.880 131.794" stroke="none" fill="black" fill-rule="evenodd"/>
</svg>